<svg id="Layer_1" height="30" viewBox="0 0 512 512" width="30" xmlns="http://www.w3.org/2000/svg" data-name="Layer 1"><path d="m256-.021c141.376 0 256 114.659 256 256.035s-114.621 255.964-256 255.964-256-114.587-256-255.964 114.612-256.035 256-256.035zm132.446 160.174a25.892 25.892 0 1 0 -36.616-36.619l-1.221 1.217 36.619 36.619zm-42.867 230.21v-159.063l-100.454 100.459a10 10 0 0 1 -4.93 2.692l-65.368 14.313a10 10 0 0 1 -11.9-11.957l14.605-65.073a10.017 10.017 0 0 1 2.689-4.883l100.456-100.451h-159.064a5.632 5.632 0 0 0 -5.623 5.626v218.337a5.63 5.63 0 0 0 5.623 5.626h218.34a5.631 5.631 0 0 0 5.626-5.626zm-103.214-84.13 130.718-130.718-36.618-36.615-130.719 130.714zm-47.711-19.433-8.77 39.069 39.244-8.595zm143.037-177.411-37.014 37.005h-179.064a25.658 25.658 0 0 0 -25.623 25.627v218.342a25.651 25.651 0 0 0 25.623 25.626h218.34a25.651 25.651 0 0 0 25.623-25.626v-179.063l37.014-37.014a45.891 45.891 0 0 0 -64.9-64.9z" fill="#ffc107" fill-rule="evenodd"/></svg>