<svg id="Слой_1" enable-background="new 0 0 512 512" height="30" viewBox="0 0 512 512" width="30" xmlns="http://www.w3.org/2000/svg"><g><path d="m499.451 240.702c-8.029-18.898-19.506-35.887-34.112-50.493-14.606-14.607-31.595-26.083-50.493-34.112-19.601-8.327-40.373-12.549-61.74-12.549h-297.917l65.272-65.293c6.311-6.313 6.31-16.547-.004-22.858-6.313-6.311-16.547-6.31-22.858.004l-92.867 92.894c-6.31 6.312-6.31 16.545.002 22.856l92.867 92.87c3.156 3.157 7.292 4.734 11.429 4.734 4.136 0 8.273-1.578 11.429-4.734 6.312-6.312 6.312-16.546 0-22.858l-65.289-65.291h297.934c69.79 0 126.568 56.778 126.568 126.568s-56.778 126.568-126.568 126.568h-94.721c-8.927 0-16.163 7.237-16.163 16.163 0 8.927 7.237 16.163 16.163 16.163h94.721c21.367 0 42.139-4.222 61.74-12.549 18.898-8.029 35.887-19.506 50.493-34.112 14.606-14.607 26.083-31.595 34.112-50.493 8.327-19.601 12.549-40.373 12.549-61.74s-4.22-42.138-12.547-61.738z"/></g></svg>