<svg id="Capa_1" enable-background="new 0 0 463.238 463.238" height="30" viewBox="0 0 463.238 463.238" width="30" xmlns="http://www.w3.org/2000/svg"><g fill="#ea2d40"><path d="m207.238 121.905h48.762v12.19h-48.762z"/><path d="m231.619 0c-127.92 0-231.619 103.699-231.619 231.619s103.699 231.619 231.619 231.619 231.619-103.699 231.619-231.619c-.141-127.861-103.758-231.478-231.619-231.619zm97.524 319.281c-.724 26.3-22.581 47.061-48.884 46.434h-97.28c-26.302.628-48.159-20.134-48.884-46.434v-136.424c0-6.733 5.458-12.19 12.19-12.19s12.19 5.458 12.19 12.19v136.424c.728 12.831 11.666 22.676 24.503 22.053h97.28c12.837.623 23.775-9.221 24.503-22.053v-136.424c0-6.733 5.458-12.19 12.19-12.19s12.19 5.458 12.19 12.19v136.424zm-134.095-26.71v-85.333c0-6.733 5.458-12.19 12.19-12.19s12.19 5.458 12.19 12.19v85.333c0 6.733-5.458 12.19-12.19 12.19s-12.19-5.457-12.19-12.19zm48.762 0v-85.333c0-6.733 5.458-12.19 12.19-12.19s12.19 5.458 12.19 12.19v85.333c0 6.733-5.458 12.19-12.19 12.19s-12.19-5.457-12.19-12.19zm85.333-134.095h-195.048c-6.733 0-12.19-5.458-12.19-12.19s5.458-12.19 12.19-12.19h48.762v-24.381c0-6.733 5.458-12.19 12.19-12.19h73.143c6.733 0 12.19 5.458 12.19 12.19v24.381h48.762c6.733 0 12.19 5.458 12.19 12.19s-5.457 12.19-12.189 12.19z"/></g></svg>